<svg width="273.4700073242187px" height="120.81007995605468px" xmlns="http://www.w3.org/2000/svg" viewBox="113.26499633789064 14.59496002197266 273.4700073242187 120.81007995605468" style="background: none;" preserveAspectRatio="xMidYMid"><defs><filter id="editing-crystal" x="-100%" y="-100%" width="300%" height="300%"><feMorphology operator="dilate" radius="2" in="SourceGraphic" result="border"></feMorphology><feFlood flood-color="#060505" result="black"></feFlood><feMorphology operator="dilate" radius="2" in="SourceGraphic" result="erode"></feMorphology><feGaussianBlur in="erode" stdDeviation="4" result="blur"></feGaussianBlur><feOffset in="blur" dx="2" dy="2" result="offset"></feOffset><feComposite operator="atop" in="offset" in2="black" result="merge"></feComposite><feComposite operator="in" in="merge" in2="SourceGraphic" result="inner-shadow"></feComposite><feGaussianBlur in="SourceGraphic" stdDeviation="2.5" result="shadow1"></feGaussianBlur><feOffset in="shadow1" dx="0" dy="5" result="shadow"></feOffset><feSpecularLighting in="SourceGraphic" result="specular" surfaceScale="1.5" specularConstant="100" specularExponent="10" lighting-color="#ff7979"><fePointLight x="250" y="-300" z="-400"></fePointLight></feSpecularLighting><feGaussianBlur in="specular" stdDeviation="1" result="specular2"></feGaussianBlur><feComposite operator="in" in="specular2" in2="SourceAlpha" result="specular3"></feComposite><feMerge result="merge"><feMergeNode in="border"></feMergeNode><feMergeNode in="inner-shadow"></feMergeNode><feMergeNode in="specular3"></feMergeNode></feMerge><feComponentTransfer in="merge" result="final"><feFuncA type="linear" slope="0.9" intercept="0"></feFuncA></feComponentTransfer><feMerge><feMergeNode in="shadow"></feMergeNode><feMergeNode in="final"></feMergeNode></feMerge></filter></defs><g filter="url(#editing-crystal)"><g transform="translate(157.55187046527863, 99)"><path d="M6.53 0L-0.83 0L10.75-42.24L24.13-42.24L27.07-18.11L38.98-42.24L50.18-42.24L51.33-10.62L51.33-10.62Q51.58-4.35 54.66-2.43L54.66-2.43L54.66-2.43Q53.95-1.15 51.90 0.06L51.90 0.06L51.90 0.06Q49.86 1.28 47.14 1.28L47.14 1.28L47.14 1.28Q44.42 1.28 42.82 0.51L42.82 0.51L42.82 0.51Q41.22-0.26 40.32-1.54L40.32-1.54L40.32-1.54Q38.72-3.84 38.72-8.26L38.72-8.26L38.72-28.03L26.11 0L18.18 0L13.70-28.74L6.53 0ZM71.36 1.28L71.36 1.28L71.36 1.28Q57.28 1.28 57.28-11.97L57.28-11.97L57.28-11.97Q57.28-21.38 62.46-27.46L62.46-27.46L62.46-27.46Q67.97-33.92 77.50-33.92L77.50-33.92L77.50-33.92Q84.42-33.92 87.94-30.72L87.94-30.72L87.94-30.72Q91.46-27.52 91.46-20.80L91.46-20.80L91.46-20.80Q91.46-10.56 85.95-4.61L85.95-4.61L85.95-4.61Q80.58 1.28 71.36 1.28ZM73.02-26.56L73.02-26.56L73.02-26.56Q72.26-24.83 71.65-22.24L71.65-22.24L71.65-22.24Q71.04-19.65 70.27-15.55L70.27-15.55L70.27-15.55Q69.50-11.46 69.50-6.40L69.50-6.40L69.50-6.40Q69.50-4.74 70.05-3.65L70.05-3.65L70.05-3.65Q70.59-2.56 72.06-2.56L72.06-2.56L72.06-2.56Q73.54-2.56 74.46-3.26L74.46-3.26L74.46-3.26Q75.39-3.97 76.10-5.63L76.10-5.63L76.10-5.63Q77.38-8.58 78.40-14.05L78.40-14.05L78.40-14.05Q79.42-19.52 79.52-21.89L79.52-21.89L79.52-21.89Q79.62-24.26 79.62-26.02L79.62-26.02L79.62-26.02Q79.62-27.78 79.10-28.93L79.10-28.93L79.10-28.93Q78.59-30.08 77.15-30.08L77.15-30.08L77.15-30.08Q75.71-30.08 74.75-29.18L74.75-29.18L74.75-29.18Q73.79-28.29 73.02-26.56ZM118.46-31.55L118.46-31.55L118.46-31.55Q120.58-33.92 124.22-33.92L124.22-33.92L124.22-33.92Q126.46-33.92 128.19-32.70L128.19-32.70L128.19-32.70Q129.92-31.49 129.92-29.22L129.92-29.22L129.92-29.22Q129.92-26.94 129.22-24.51L129.22-24.51L129.22-24.51Q128.51-22.08 127.42-19.58L127.42-19.58L127.42-19.58Q125.25-14.72 122.24-10.69L122.24-10.69L122.24-10.69Q118.02-4.86 113.95-1.79L113.95-1.79L113.95-1.79Q109.89 1.28 105.47 1.28L105.47 1.28L105.47 1.28Q101.89 1.28 99.71 0.45L99.71 0.45L99.71 0.45Q99.33-12.99 98.85-17.79L98.85-17.79L98.85-17.79Q98.37-22.59 97.98-25.22L97.98-25.22L97.98-25.22Q97.34-30.34 95.42-31.55L95.42-31.55L95.42-31.55Q96.90-32.83 98.34-33.38L98.34-33.38L98.34-33.38Q99.78-33.92 102.75-33.92L102.75-33.92L102.75-33.92Q105.73-33.92 107.84-31.58L107.84-31.58L107.84-31.58Q109.95-29.25 110.37-25.12L110.37-25.12L110.37-25.12Q110.78-20.99 110.78-16L110.78-16L110.78-16Q110.78-11.01 110.40-4.99L110.40-4.99L110.40-4.99Q112.38-6.40 114.50-10.69L114.50-10.69L114.50-10.69Q117.38-16.64 118.40-23.81L118.40-23.81L118.40-23.81Q118.72-25.98 118.72-28.29L118.72-28.29L118.72-28.29Q118.72-30.59 118.46-31.55ZM147.01-3.52L147.01-3.52L147.01-3.52Q145.02 1.28 138.69 1.28L138.69 1.28L138.69 1.28Q135.42 1.28 133.38-0.96L133.38-0.96L133.38-0.96Q131.65-2.94 131.65-4.93L131.65-4.93L131.65-4.93Q131.65-10.11 134.02-20.22L134.02-20.22L136.38-32.64L149.38-33.92L145.47-13.70L145.47-13.70Q144.38-8.96 144.38-7.30L144.38-7.30L144.38-7.30Q144.38-3.65 147.01-3.52ZM137.54-41.54L137.54-41.54L137.54-41.54Q137.54-44.03 139.62-45.38L139.62-45.38L139.62-45.38Q141.70-46.72 144.70-46.72L144.70-46.72L144.70-46.72Q147.71-46.72 149.54-45.38L149.54-45.38L149.54-45.38Q151.36-44.03 151.36-41.54L151.36-41.54L151.36-41.54Q151.36-39.04 149.34-37.76L149.34-37.76L149.34-37.76Q147.33-36.48 144.32-36.48L144.32-36.48L144.32-36.48Q141.31-36.48 139.42-37.76L139.42-37.76L139.42-37.76Q137.54-39.04 137.54-41.54ZM178.37-10.82L178.37-10.82L178.37-10.82Q179.97-9.73 179.97-7.33L179.97-7.33L179.97-7.33Q179.97-4.93 178.75-3.39L178.75-3.39L178.75-3.39Q177.54-1.86 175.55-0.83L175.55-0.83L175.55-0.83Q171.46 1.28 167.04 1.28L167.04 1.28L167.04 1.28Q162.62 1.28 160.03 0.32L160.03 0.32L160.03 0.32Q157.44-0.64 155.71-2.43L155.71-2.43L155.71-2.43Q152.32-5.82 152.32-12.03L152.32-12.03L152.32-12.03Q152.32-21.70 157.57-27.58L157.57-27.58L157.57-27.58Q163.20-33.92 172.99-33.92L172.99-33.92L172.99-33.92Q179.07-33.92 182.08-31.36L182.08-31.36L182.08-31.36Q184.32-29.44 184.32-26.30L184.32-26.30L184.32-26.30Q184.32-15.04 164.86-15.04L164.86-15.04L164.86-15.04Q164.61-13.38 164.61-11.97L164.61-11.97L164.61-11.97Q164.61-9.02 165.92-7.90L165.92-7.90L165.92-7.90Q167.23-6.78 169.66-6.78L169.66-6.78L169.66-6.78Q172.10-6.78 174.69-7.90L174.69-7.90L174.69-7.90Q177.28-9.02 178.37-10.82ZM165.31-17.79L165.31-17.79L165.31-17.79Q169.86-17.79 172.48-20.61L172.48-20.61L172.48-20.61Q175.10-23.30 175.10-27.58L175.10-27.58L175.10-27.58Q175.10-29.06 174.56-29.86L174.56-29.86L174.56-29.86Q174.02-30.66 172.93-30.66L172.93-30.66L172.93-30.66Q171.84-30.66 170.91-30.24L170.91-30.24L170.91-30.24Q169.98-29.82 169.02-28.42L169.02-28.42L169.02-28.42Q166.66-25.22 165.31-17.79Z" fill="#000000" stroke="#f94a00" stroke-width="1.5"></path></g></g><style>text {
  font-size: 64px;
  font-family: Arial Black;
  dominant-baseline: central;
  text-anchor: middle;
}</style></svg>